M48
;Layer_Color=9474304
;FILE_FORMAT=2:5
INCH,LZ
;TYPE=PLATED
T1F00S00C0.01000
T2F00S00C0.01181
T3F00S00C0.03504
T4F00S00C0.04016
T5F00S00C0.04331
T6F00S00C0.12598
;TYPE=NON_PLATED
T7F00S00C0.03740
%
T01
X01673Y0468
X01693Y04782
X0145146Y0477446
X01454Y04832
T02
X01228Y01468
X01272Y01561
X01792Y02006
X0184Y01965
X01801Y0256
X01741Y0251
X01678
X01685Y02563
X01665Y02613
X01656Y02671
X01714Y027
X01706Y02746
X01764Y02764
X01788Y02684
X01572Y02682
X01609Y02862
X0163Y03043
X01824Y0305
X01912Y0304
X01885Y03101
X01988Y03093
X02064Y0309
X02126Y03093
X02182Y03098
X0222Y03059
X02232Y03007
X02286Y03013
X02282Y0295207
X02151Y03016
X02093Y03041
X01939Y02955
X0185Y02965
X02438Y02875
X0249Y02896
X02533Y02851
X0253873Y0276927
X0247167Y0271021
X02488Y02657
X02353Y02367
X02283Y02359
X0263606Y0209525
X02638Y02012
X02413Y01782
X01608Y02368
X01623Y02423
X01549Y02347
X01497Y02319
X01417Y0225
X01351Y02208
X01413Y02124
X01492Y0217
X01481Y02031
X01382Y01982
X01362Y01859
X01314Y01738
X01226Y01804
X01247Y01931
X01271Y02076
X01225Y01654
X01512Y02972
X01527Y03364
X0133Y0336784
X01267Y03596
X01367Y03661
X01424Y03586
X01447Y0372
X01421Y03844
X01433Y03921
X01468Y03994
X01277Y03853
Y04328
X01274Y04448
X01616Y04367
X01634Y04236
X01715Y04178
X0171968Y0412932
X01768Y04144
X01808Y04177
X0185719Y0417981
X01839Y04128
X01758Y04081
X0162578Y0410122
X01621Y03945
X01675Y03956
X01647Y03902
X0158993Y03878
Y03813
X0163Y03814
X01657Y03757
X01611Y03738
X01713Y03669
X01791Y03631
X01818Y03703
X0190394Y0368205
X02094Y03699
X02196Y03748
X02321Y03747
X0233981Y0379554
X0225643Y0388164
X0229987Y040425
X02357Y04019
X02415Y03989
X0243749Y0404897
X0249435Y0399439
X02477Y04195
X02397Y04196
X02321
X02235Y04135
X02165Y04225
X02065Y0425
X01954Y04316
X02007Y04446
X0200903Y0451121
X0206332Y0457006
X0193333Y0455321
X0184586Y0455053
X01783Y04435
X018Y04281
X01947Y04002
X01992Y03978
X02005Y03887
X02051Y03854
X0202685Y0405055
X01885Y03916
X01779Y03514
X01722Y03525
X01698Y03454
X01606Y0344807
X01631Y03553
X0168Y03302
X01814Y03251
X0188203Y0326997
X0195Y03309
X01963Y03349
X0196Y03408
X02032Y0339707
X02109Y0339507
X0223575Y0345125
X02245Y0351
X02305Y03659
X02378Y03661
X02449
X02522Y03659
X02631Y03649
X0271807Y03634
Y03568
X02581Y03524
X02698Y03737
X02779Y03807
X02765Y03965
X02725Y04385
X02704Y04511
X02569Y04499
X02567Y04574
X0249Y04436
X02395Y04496
X0235418Y033305
X02263Y0323
X0229775Y0313363
X02054Y03143
X02001Y03207
X01894Y03156
X01787Y03186
X01859Y03425
T03
X0208863Y036
X0216737
X0234926Y0345125
X02428
T04
X01128Y01314
Y01414
Y01514
X02915Y01515
Y01415
Y01315
Y01615
Y01715
Y01815
Y01915
Y02015
Y02115
Y02215
Y02315
Y02415
Y02515
Y02615
Y02715
Y02815
Y02915
Y03015
Y03115
X01128Y03114
Y03014
Y02914
Y02814
Y02714
Y02614
Y02514
Y02414
Y02314
Y02214
Y02114
Y02014
Y01914
Y01814
Y01714
Y01614
Y03214
Y03314
Y03414
Y03514
Y03614
Y03714
Y03814
Y03914
Y04014
Y04114
Y04214
Y04314
Y04414
Y04514
X0152229Y0383
Y0373
Y0363
Y0353
X02915Y03515
Y03615
Y03715
Y03815
Y03915
Y04015
Y04115
Y04215
Y04315
Y04415
Y04515
Y03415
Y03315
Y03215
T05
X01514Y0417
Y0427
Y0437
Y0447
Y0457
Y0467
T06
X0158Y0138
X0252
X028Y047
X0124
T07
X0192358Y0479083
X0209681
M30
