G04*
G04 #@! TF.GenerationSoftware,Altium Limited,Altium Designer,22.4.2 (48)*
G04*
G04 Layer_Color=32896*
%FSLAX25Y25*%
%MOIN*%
G70*
G04*
G04 #@! TF.SameCoordinates,9E7922A3-3756-4234-A879-3C4FB0169599*
G04*
G04*
G04 #@! TF.FilePolarity,Positive*
G04*
G01*
G75*
%ADD10C,0.00500*%
%ADD11C,0.00787*%
G36*
X227517Y123500D02*
X180483D01*
Y152500D01*
X227517D01*
Y123500D01*
D02*
G37*
%LPC*%
G36*
X225517Y150500D02*
X224844D01*
Y127168D01*
X225517D01*
Y150500D01*
D02*
G37*
G36*
X223500D02*
X222827D01*
Y127168D01*
X223500D01*
Y150500D01*
D02*
G37*
G36*
X222155D02*
X220810D01*
Y127168D01*
X222155D01*
Y150500D01*
D02*
G37*
G36*
X220138D02*
X218793D01*
Y127168D01*
X220138D01*
Y150500D01*
D02*
G37*
G36*
X218120D02*
X217448D01*
Y127168D01*
X218120D01*
Y150500D01*
D02*
G37*
G36*
X216776D02*
X216103D01*
Y127168D01*
X216776D01*
Y150500D01*
D02*
G37*
G36*
X215431D02*
X214086D01*
Y127168D01*
X215431D01*
Y150500D01*
D02*
G37*
G36*
X213414D02*
X212741D01*
Y127168D01*
X213414D01*
Y150500D01*
D02*
G37*
G36*
X212069D02*
X210724D01*
Y127168D01*
X212069D01*
Y150500D01*
D02*
G37*
G36*
X209379D02*
X208707D01*
Y127168D01*
X209379D01*
Y150500D01*
D02*
G37*
G36*
X208034D02*
X207362D01*
Y127168D01*
X208034D01*
Y150500D01*
D02*
G37*
G36*
X206690D02*
X206017D01*
Y127168D01*
X206690D01*
Y150500D01*
D02*
G37*
G36*
X205345D02*
X204000D01*
Y127168D01*
X205345D01*
Y150500D01*
D02*
G37*
G36*
X203328D02*
X201983D01*
Y127168D01*
X203328D01*
Y150500D01*
D02*
G37*
G36*
X200638D02*
X199966D01*
Y127168D01*
X200638D01*
Y150500D01*
D02*
G37*
G36*
X199293D02*
X197948D01*
Y127168D01*
X199293D01*
Y150500D01*
D02*
G37*
G36*
X197276D02*
X195931D01*
Y127168D01*
X197276D01*
Y150500D01*
D02*
G37*
G36*
X195259D02*
X194586D01*
Y127168D01*
X195259D01*
Y150500D01*
D02*
G37*
G36*
X193914D02*
X193242D01*
Y127168D01*
X193914D01*
Y150500D01*
D02*
G37*
G36*
X191897D02*
X191224D01*
Y127168D01*
X191897D01*
Y150500D01*
D02*
G37*
G36*
X190552D02*
X189880D01*
Y127168D01*
X190552D01*
Y150500D01*
D02*
G37*
G36*
X188535D02*
X187862D01*
Y127168D01*
X188535D01*
Y150500D01*
D02*
G37*
G36*
X187190D02*
X185845D01*
Y127168D01*
X187190D01*
Y150500D01*
D02*
G37*
G36*
X185173D02*
X183828D01*
Y127168D01*
X185173D01*
Y150500D01*
D02*
G37*
G36*
X183156D02*
X182483D01*
Y127168D01*
X183156D01*
Y150500D01*
D02*
G37*
G36*
X218700Y127132D02*
X218677D01*
X218667Y127129D01*
X218651D01*
X218616Y127124D01*
X218570Y127117D01*
X218516Y127106D01*
X218453Y127094D01*
X218384Y127073D01*
X218378D01*
X218371Y127071D01*
X218358Y127068D01*
X218345Y127066D01*
X218338D01*
X218333Y127068D01*
X218325Y127071D01*
X218312Y127073D01*
X218297Y127078D01*
X218277Y127086D01*
X218274Y127089D01*
X218264Y127091D01*
X218251Y127094D01*
X218233D01*
X218223Y127091D01*
X218205Y127086D01*
X218185Y127078D01*
X218159Y127063D01*
X218131Y127040D01*
X218118Y127027D01*
X218103Y127010D01*
X218085Y126992D01*
X218070Y126969D01*
Y126966D01*
X218067Y126964D01*
X218057Y126948D01*
X218042Y126923D01*
X218027Y126892D01*
X218011Y126857D01*
X217996Y126818D01*
X217986Y126775D01*
X217983Y126732D01*
Y126729D01*
Y126722D01*
X217986Y126709D01*
X217988Y126693D01*
X217993Y126678D01*
X218001Y126658D01*
X218011Y126640D01*
X218024Y126622D01*
X218027Y126620D01*
X218032Y126614D01*
X218039Y126607D01*
X218050Y126599D01*
X218065Y126591D01*
X218080Y126584D01*
X218098Y126579D01*
X218118Y126576D01*
X218134D01*
X218144Y126579D01*
X218169Y126584D01*
X218195Y126594D01*
X218197D01*
X218200Y126599D01*
X218210Y126604D01*
X218220Y126617D01*
X218238Y126630D01*
X218261Y126650D01*
X218289Y126675D01*
X218322Y126706D01*
X218325Y126709D01*
X218327Y126711D01*
X218335Y126719D01*
X218345Y126726D01*
X218373Y126747D01*
X218409Y126772D01*
X218453Y126798D01*
X218498Y126818D01*
X218549Y126834D01*
X218575Y126836D01*
X218600Y126839D01*
X218611D01*
X218623Y126836D01*
X218636Y126834D01*
X218672Y126826D01*
X218690Y126816D01*
X218705Y126806D01*
X218707Y126803D01*
X218710Y126801D01*
X218718Y126793D01*
X218723Y126785D01*
X218738Y126757D01*
X218741Y126742D01*
X218743Y126724D01*
Y126719D01*
X218741Y126706D01*
X218733Y126688D01*
X218720Y126665D01*
X218713Y126655D01*
X218700Y126642D01*
X218685Y126627D01*
X218667Y126614D01*
X218646Y126602D01*
X218623Y126591D01*
X218595Y126579D01*
X218565Y126568D01*
X218562D01*
X218554Y126566D01*
X218542Y126561D01*
X218526Y126556D01*
X218506Y126551D01*
X218483Y126546D01*
X218435Y126530D01*
X218381Y126512D01*
X218330Y126495D01*
X218307Y126487D01*
X218287Y126479D01*
X218269Y126472D01*
X218254Y126467D01*
X218251Y126464D01*
X218241Y126459D01*
X218226Y126451D01*
X218208Y126438D01*
X218185Y126423D01*
X218159Y126405D01*
X218131Y126382D01*
X218103Y126357D01*
X218078Y126329D01*
X218050Y126298D01*
X218024Y126262D01*
X218001Y126224D01*
X217983Y126181D01*
X217968Y126137D01*
X217958Y126089D01*
X217955Y126038D01*
Y126035D01*
Y126028D01*
Y126015D01*
X217958Y125997D01*
X217960Y125974D01*
X217965Y125951D01*
X217973Y125923D01*
X217981Y125893D01*
X217991Y125862D01*
X218004Y125829D01*
X218021Y125796D01*
X218042Y125760D01*
X218065Y125727D01*
X218093Y125694D01*
X218124Y125661D01*
X218159Y125630D01*
X218162Y125628D01*
X218169Y125622D01*
X218180Y125615D01*
X218197Y125604D01*
X218218Y125592D01*
X218243Y125579D01*
X218271Y125564D01*
X218305Y125551D01*
X218343Y125536D01*
X218384Y125520D01*
X218429Y125508D01*
X218478Y125495D01*
X218529Y125485D01*
X218585Y125477D01*
X218644Y125472D01*
X218705Y125469D01*
X218746D01*
X218761Y125472D01*
X218802Y125475D01*
X218848Y125477D01*
X218901Y125485D01*
X218960Y125492D01*
X219021Y125503D01*
X219024D01*
X219029Y125505D01*
X219036D01*
X219049Y125510D01*
X219077Y125515D01*
X219113Y125525D01*
X219151Y125538D01*
X219192Y125554D01*
X219230Y125569D01*
X219261Y125587D01*
X219263Y125589D01*
X219271Y125594D01*
X219281Y125604D01*
X219294Y125622D01*
X219309Y125643D01*
X219327Y125671D01*
X219345Y125707D01*
X219363Y125750D01*
Y125752D01*
X219365Y125755D01*
X219368Y125763D01*
X219371Y125773D01*
X219378Y125796D01*
X219386Y125829D01*
X219393Y125867D01*
X219401Y125908D01*
X219406Y125951D01*
X219409Y125997D01*
Y126000D01*
Y126007D01*
X219406Y126018D01*
Y126030D01*
X219398Y126058D01*
X219383Y126084D01*
X219381Y126086D01*
X219378Y126089D01*
X219363Y126102D01*
X219340Y126115D01*
X219325Y126117D01*
X219309Y126120D01*
X219302D01*
X219294Y126117D01*
X219281Y126115D01*
X219268Y126109D01*
X219256Y126099D01*
X219240Y126089D01*
X219225Y126074D01*
X219223Y126071D01*
X219220Y126069D01*
X219212Y126058D01*
X219200Y126043D01*
X219184Y126023D01*
X219164Y125992D01*
X219138Y125956D01*
X219123Y125934D01*
X219108Y125908D01*
X219105Y125905D01*
X219100Y125898D01*
X219090Y125885D01*
X219075Y125870D01*
X219054Y125854D01*
X219031Y125837D01*
X219003Y125819D01*
X218970Y125801D01*
X218965Y125798D01*
X218955Y125793D01*
X218934Y125788D01*
X218912Y125780D01*
X218881Y125770D01*
X218848Y125765D01*
X218812Y125760D01*
X218776Y125758D01*
X218761D01*
X218746Y125760D01*
X218725Y125763D01*
X218679Y125770D01*
X218656Y125778D01*
X218636Y125788D01*
X218634Y125791D01*
X218628Y125793D01*
X218618Y125801D01*
X218608Y125811D01*
X218598Y125824D01*
X218588Y125837D01*
X218583Y125854D01*
X218580Y125872D01*
Y125875D01*
Y125880D01*
X218583Y125888D01*
X218585Y125900D01*
X218590Y125913D01*
X218598Y125926D01*
X218608Y125939D01*
X218623Y125951D01*
X218626Y125954D01*
X218631Y125956D01*
X218641Y125964D01*
X218656Y125972D01*
X218674Y125982D01*
X218697Y125992D01*
X218728Y126005D01*
X218761Y126015D01*
X218764D01*
X218769Y126018D01*
X218776Y126020D01*
X218789Y126025D01*
X218820Y126035D01*
X218855Y126048D01*
X218899Y126064D01*
X218939Y126079D01*
X218983Y126097D01*
X219019Y126112D01*
X219021Y126115D01*
X219034Y126120D01*
X219049Y126130D01*
X219072Y126143D01*
X219095Y126160D01*
X219123Y126178D01*
X219179Y126224D01*
X219182Y126227D01*
X219187Y126232D01*
X219197Y126240D01*
X219207Y126252D01*
X219223Y126268D01*
X219238Y126288D01*
X219256Y126308D01*
X219271Y126331D01*
X219307Y126387D01*
X219337Y126451D01*
X219348Y126484D01*
X219358Y126520D01*
X219363Y126558D01*
X219365Y126596D01*
Y126602D01*
Y126614D01*
X219363Y126635D01*
X219360Y126660D01*
X219353Y126691D01*
X219345Y126726D01*
X219332Y126762D01*
X219317Y126798D01*
X219314Y126803D01*
X219307Y126813D01*
X219297Y126834D01*
X219281Y126857D01*
X219263Y126882D01*
X219240Y126910D01*
X219212Y126938D01*
X219182Y126966D01*
X219179Y126969D01*
X219172Y126974D01*
X219161Y126981D01*
X219146Y126992D01*
X219128Y127005D01*
X219105Y127020D01*
X219077Y127032D01*
X219047Y127050D01*
X219014Y127066D01*
X218978Y127078D01*
X218937Y127094D01*
X218896Y127106D01*
X218850Y127117D01*
X218802Y127124D01*
X218753Y127129D01*
X218700Y127132D01*
D02*
G37*
G36*
X203770Y127137D02*
X203765D01*
X203752Y127135D01*
X203734Y127129D01*
X203711Y127119D01*
X203681Y127101D01*
X203650Y127076D01*
X203635Y127061D01*
X203617Y127043D01*
X203602Y127020D01*
X203584Y126994D01*
Y126992D01*
X203579Y126989D01*
X203576Y126981D01*
X203569Y126971D01*
X203556Y126943D01*
X203538Y126905D01*
X203523Y126862D01*
X203507Y126813D01*
X203497Y126762D01*
X203495Y126706D01*
Y126701D01*
Y126688D01*
X203497Y126671D01*
X203502Y126650D01*
X203510Y126625D01*
X203520Y126599D01*
X203536Y126576D01*
X203556Y126556D01*
X203558Y126553D01*
X203564Y126551D01*
X203574Y126546D01*
X203589Y126540D01*
X203604Y126533D01*
X203625Y126528D01*
X203648Y126525D01*
X203671Y126523D01*
X203681D01*
X203694Y126525D01*
X203706Y126528D01*
X203742Y126538D01*
X203760Y126546D01*
X203778Y126556D01*
X203780Y126558D01*
X203785Y126563D01*
X203796Y126571D01*
X203806Y126584D01*
X203819Y126599D01*
X203834Y126620D01*
X203852Y126642D01*
X203867Y126671D01*
X203870Y126673D01*
X203872Y126683D01*
X203880Y126696D01*
X203890Y126711D01*
X203908Y126742D01*
X203918Y126755D01*
X203928Y126765D01*
X203933Y126767D01*
X203943Y126778D01*
X203961Y126785D01*
X203982Y126788D01*
X203989D01*
X204005Y126783D01*
X204017Y126778D01*
X204028Y126772D01*
X204038Y126762D01*
X204046Y126750D01*
Y126747D01*
X204048Y126742D01*
X204051Y126734D01*
X204053Y126722D01*
X204058Y126706D01*
X204061Y126686D01*
X204063Y126660D01*
Y126632D01*
Y125974D01*
Y125969D01*
Y125959D01*
Y125941D01*
X204061Y125918D01*
X204056Y125872D01*
X204051Y125849D01*
X204043Y125829D01*
Y125826D01*
X204038Y125821D01*
X204033Y125814D01*
X204025Y125803D01*
X204015Y125791D01*
X204002Y125780D01*
X203984Y125768D01*
X203964Y125758D01*
X203961D01*
X203954Y125752D01*
X203943Y125747D01*
X203928Y125742D01*
X203900Y125724D01*
X203887Y125717D01*
X203877Y125707D01*
X203875Y125701D01*
X203865Y125689D01*
X203857Y125668D01*
X203854Y125640D01*
Y125638D01*
X203857Y125628D01*
X203859Y125612D01*
X203870Y125594D01*
X203882Y125574D01*
X203903Y125551D01*
X203931Y125533D01*
X203949Y125523D01*
X203969Y125515D01*
X203974Y125513D01*
X203982D01*
X203989Y125510D01*
X204002Y125508D01*
X204017Y125503D01*
X204035Y125500D01*
X204056Y125497D01*
X204079Y125492D01*
X204104Y125490D01*
X204132Y125487D01*
X204163Y125482D01*
X204199Y125480D01*
X204234D01*
X204275Y125477D01*
X204367D01*
X204390Y125480D01*
X204418D01*
X204448Y125482D01*
X204482D01*
X204553Y125487D01*
X204624Y125497D01*
X204693Y125508D01*
X204724Y125515D01*
X204752Y125523D01*
X204757Y125525D01*
X204770Y125531D01*
X204790Y125541D01*
X204811Y125554D01*
X204831Y125571D01*
X204851Y125592D01*
X204864Y125620D01*
X204867Y125635D01*
X204869Y125651D01*
Y125653D01*
Y125658D01*
X204867Y125668D01*
X204864Y125679D01*
X204859Y125691D01*
X204851Y125704D01*
X204841Y125717D01*
X204828Y125727D01*
X204826D01*
X204821Y125730D01*
X204813Y125732D01*
X204803Y125737D01*
X204788Y125742D01*
X204767Y125747D01*
X204744Y125755D01*
X204742D01*
X204737Y125758D01*
X204719Y125765D01*
X204698Y125780D01*
X204691Y125791D01*
X204683Y125803D01*
Y125806D01*
X204680Y125811D01*
X204678Y125821D01*
X204673Y125834D01*
X204668Y125854D01*
X204663Y125877D01*
X204660Y125908D01*
X204655Y125944D01*
Y125949D01*
X204652Y125962D01*
Y125985D01*
X204650Y126015D01*
X204647Y126056D01*
X204642Y126107D01*
Y126137D01*
X204640Y126168D01*
Y126204D01*
X204637Y126240D01*
Y126242D01*
Y126250D01*
Y126260D01*
X204634Y126273D01*
Y126291D01*
Y126311D01*
X204632Y126359D01*
Y126416D01*
X204629Y126474D01*
Y126535D01*
Y126594D01*
Y126599D01*
Y126612D01*
Y126630D01*
X204632Y126653D01*
X204637Y126704D01*
X204642Y126726D01*
X204647Y126744D01*
Y126747D01*
X204650Y126752D01*
X204660Y126767D01*
X204675Y126780D01*
X204685Y126785D01*
X204698Y126788D01*
X204706D01*
X204716Y126785D01*
X204726Y126780D01*
X204739Y126772D01*
X204754Y126760D01*
X204772Y126744D01*
X204788Y126724D01*
Y126722D01*
X204790Y126719D01*
X204800Y126704D01*
X204816Y126683D01*
X204833Y126660D01*
X204854Y126632D01*
X204877Y126607D01*
X204897Y126584D01*
X204918Y126566D01*
X204920Y126563D01*
X204928Y126558D01*
X204938Y126551D01*
X204953Y126543D01*
X204971Y126535D01*
X204992Y126528D01*
X205012Y126523D01*
X205032Y126520D01*
X205043D01*
X205055Y126523D01*
X205068Y126525D01*
X205086Y126530D01*
X205104Y126540D01*
X205122Y126551D01*
X205137Y126566D01*
X205139Y126568D01*
X205142Y126574D01*
X205150Y126586D01*
X205157Y126599D01*
X205165Y126617D01*
X205170Y126637D01*
X205175Y126663D01*
X205178Y126688D01*
Y126691D01*
Y126701D01*
X205175Y126716D01*
X205173Y126734D01*
X205170Y126757D01*
X205165Y126785D01*
X205157Y126816D01*
X205147Y126846D01*
X205145Y126851D01*
X205142Y126862D01*
X205134Y126880D01*
X205124Y126900D01*
X205111Y126926D01*
X205096Y126953D01*
X205058Y127010D01*
Y127012D01*
X205053Y127015D01*
X205043Y127027D01*
X205025Y127048D01*
X205002Y127071D01*
X204976Y127091D01*
X204946Y127112D01*
X204915Y127124D01*
X204897Y127129D01*
X204867D01*
X204849Y127127D01*
X204828Y127122D01*
X204826D01*
X204818Y127119D01*
X204805Y127117D01*
X204790Y127114D01*
X204757Y127109D01*
X204724Y127104D01*
X204716D01*
X204709Y127101D01*
X204696D01*
X204668Y127099D01*
X203994D01*
X203977Y127101D01*
X203951Y127104D01*
X203923Y127109D01*
X203895Y127114D01*
X203831Y127127D01*
X203829D01*
X203826Y127129D01*
X203811Y127132D01*
X203790Y127135D01*
X203770Y127137D01*
D02*
G37*
G36*
X190616Y127124D02*
X190565D01*
X190535Y127122D01*
X190499Y127119D01*
X190463Y127114D01*
X190433Y127106D01*
X190405Y127099D01*
X190402D01*
X190400Y127096D01*
X190387Y127091D01*
X190372Y127081D01*
X190356Y127068D01*
X190354Y127063D01*
X190349Y127058D01*
X190344Y127050D01*
X190336Y127040D01*
X190328Y127025D01*
X190318Y127007D01*
X190305Y126987D01*
X190063Y126538D01*
X190060Y126535D01*
X190055Y126525D01*
X190050Y126512D01*
X190040Y126500D01*
X190022Y126469D01*
X190015Y126456D01*
X190007Y126446D01*
X190004Y126444D01*
X189997Y126438D01*
X189984Y126433D01*
X189966Y126431D01*
X189961D01*
X189951Y126433D01*
X189938Y126438D01*
X189923Y126449D01*
X189920Y126451D01*
X189910Y126464D01*
X189897Y126484D01*
X189890Y126497D01*
X189882Y126512D01*
X189716Y126836D01*
X189714Y126839D01*
X189711Y126846D01*
X189706Y126857D01*
X189698Y126869D01*
X189686Y126897D01*
X189681Y126908D01*
X189675Y126918D01*
Y126920D01*
X189673Y126923D01*
X189665Y126936D01*
X189655Y126956D01*
X189640Y126981D01*
X189622Y127007D01*
X189602Y127032D01*
X189581Y127056D01*
X189561Y127073D01*
X189558Y127076D01*
X189545Y127081D01*
X189528Y127089D01*
X189502Y127099D01*
X189466Y127109D01*
X189420Y127117D01*
X189395Y127119D01*
X189367Y127122D01*
X189334Y127124D01*
X189270D01*
X189250Y127122D01*
X189224Y127119D01*
X189196Y127117D01*
X189135Y127106D01*
X189074Y127086D01*
X189046Y127076D01*
X189020Y127061D01*
X189000Y127043D01*
X188984Y127022D01*
X188972Y126999D01*
X188969Y126971D01*
Y126969D01*
Y126966D01*
X188972Y126953D01*
X188974Y126936D01*
X188982Y126918D01*
X188984Y126915D01*
X188992Y126905D01*
X189010Y126887D01*
X189020Y126877D01*
X189035Y126867D01*
X189038Y126864D01*
X189043Y126859D01*
X189053Y126849D01*
X189064Y126836D01*
X189076Y126821D01*
X189086Y126801D01*
X189097Y126778D01*
X189104Y126750D01*
Y126747D01*
Y126742D01*
X189107Y126734D01*
X189109Y126722D01*
Y126704D01*
X189112Y126686D01*
X189114Y126663D01*
X189117Y126640D01*
X189120Y126612D01*
X189122Y126581D01*
X189125Y126515D01*
X189130Y126438D01*
Y126354D01*
Y126352D01*
Y126341D01*
Y126326D01*
Y126303D01*
Y126278D01*
X189127Y126247D01*
Y126214D01*
Y126178D01*
X189125Y126137D01*
X189122Y126097D01*
X189117Y126007D01*
X189112Y125918D01*
X189102Y125831D01*
Y125829D01*
X189099Y125821D01*
Y125814D01*
X189097Y125801D01*
X189089Y125775D01*
X189086Y125765D01*
X189081Y125755D01*
X189079Y125752D01*
X189074Y125747D01*
X189066Y125740D01*
X189056Y125732D01*
X189043Y125722D01*
X189025Y125709D01*
X189005Y125696D01*
X189002D01*
X188997Y125691D01*
X188982Y125676D01*
X188969Y125653D01*
X188964Y125638D01*
X188962Y125620D01*
Y125617D01*
X188964Y125607D01*
X188967Y125592D01*
X188974Y125574D01*
X188987Y125556D01*
X189007Y125538D01*
X189035Y125520D01*
X189051Y125513D01*
X189071Y125505D01*
X189074D01*
X189081Y125503D01*
X189092Y125500D01*
X189107Y125495D01*
X189125Y125492D01*
X189145Y125487D01*
X189191Y125482D01*
X189204D01*
X189216Y125480D01*
X189265D01*
X189298Y125477D01*
X189431D01*
X189448Y125480D01*
X189492D01*
X189540Y125482D01*
X189589Y125487D01*
X189635Y125495D01*
X189675Y125503D01*
X189681Y125505D01*
X189693Y125508D01*
X189711Y125515D01*
X189729Y125528D01*
X189749Y125543D01*
X189767Y125561D01*
X189780Y125584D01*
X189783Y125597D01*
X189785Y125610D01*
Y125612D01*
Y125615D01*
X189783Y125625D01*
X189780Y125640D01*
X189772Y125655D01*
X189770Y125661D01*
X189765Y125666D01*
X189757Y125671D01*
X189747Y125681D01*
X189734Y125691D01*
X189719Y125707D01*
X189698Y125722D01*
X189696Y125724D01*
X189693Y125727D01*
X189688Y125735D01*
X189681Y125742D01*
X189675Y125755D01*
X189668Y125773D01*
X189663Y125793D01*
X189658Y125816D01*
Y125819D01*
X189655Y125829D01*
X189653Y125847D01*
X189650Y125872D01*
Y125905D01*
X189647Y125949D01*
X189645Y125997D01*
Y126056D01*
Y126061D01*
Y126071D01*
Y126086D01*
Y126107D01*
X189650Y126148D01*
X189653Y126166D01*
X189655Y126178D01*
Y126181D01*
X189658Y126183D01*
X189663Y126194D01*
X189673Y126204D01*
X189681Y126209D01*
X189696D01*
X189711Y126204D01*
X189721Y126199D01*
X189732Y126189D01*
X189742Y126178D01*
X189754Y126163D01*
X189757Y126160D01*
X189760Y126155D01*
X189767Y126143D01*
X189778Y126125D01*
X189790Y126099D01*
X189805Y126069D01*
X189826Y126030D01*
X189846Y125985D01*
X189987Y125668D01*
X189989Y125666D01*
X189992Y125655D01*
X189999Y125643D01*
X190007Y125625D01*
X190027Y125589D01*
X190035Y125574D01*
X190045Y125561D01*
X190050Y125556D01*
X190060Y125549D01*
X190076Y125538D01*
X190084Y125536D01*
X190094Y125533D01*
X190099D01*
X190109Y125536D01*
X190124Y125543D01*
X190140Y125556D01*
X190142Y125561D01*
X190147Y125566D01*
X190152Y125574D01*
X190160Y125587D01*
X190170Y125604D01*
X190183Y125630D01*
X190201Y125658D01*
X190203Y125663D01*
X190208Y125673D01*
X190216Y125691D01*
X190226Y125712D01*
X190239Y125737D01*
X190252Y125763D01*
X190277Y125819D01*
X190430Y126166D01*
X190433Y126168D01*
X190435Y126178D01*
X190443Y126189D01*
X190451Y126204D01*
X190461Y126217D01*
X190471Y126229D01*
X190484Y126237D01*
X190497Y126240D01*
X190502D01*
X190509Y126237D01*
X190517Y126232D01*
X190525Y126224D01*
X190530Y126211D01*
X190537Y126196D01*
X190540Y126176D01*
Y126173D01*
Y126171D01*
Y126163D01*
Y126153D01*
X190542Y126127D01*
Y126092D01*
X190545Y126053D01*
Y126010D01*
X190548Y125921D01*
Y125918D01*
Y125916D01*
Y125900D01*
Y125880D01*
X190545Y125854D01*
Y125826D01*
X190542Y125798D01*
X190540Y125775D01*
X190535Y125755D01*
X190532Y125750D01*
X190530Y125740D01*
X190522Y125727D01*
X190514Y125717D01*
X190512Y125714D01*
X190507Y125712D01*
X190499Y125709D01*
X190489Y125701D01*
X190476Y125696D01*
X190461Y125686D01*
X190440Y125676D01*
X190438D01*
X190435Y125671D01*
X190420Y125661D01*
X190407Y125638D01*
X190405Y125625D01*
X190402Y125607D01*
Y125604D01*
Y125602D01*
X190407Y125587D01*
X190412Y125576D01*
X190420Y125566D01*
X190430Y125554D01*
X190443Y125543D01*
X190461Y125531D01*
X190484Y125518D01*
X190512Y125508D01*
X190545Y125497D01*
X190583Y125490D01*
X190627Y125482D01*
X190680Y125480D01*
X190739Y125477D01*
X190764D01*
X190782Y125480D01*
X190805Y125482D01*
X190828Y125485D01*
X190879Y125492D01*
X190933Y125508D01*
X190956Y125518D01*
X190979Y125531D01*
X190996Y125543D01*
X191009Y125561D01*
X191019Y125579D01*
X191022Y125602D01*
Y125604D01*
Y125607D01*
X191019Y125620D01*
X191017Y125638D01*
X191009Y125651D01*
X191007Y125653D01*
X191001Y125658D01*
X190994Y125661D01*
X190984Y125668D01*
X190971Y125676D01*
X190953Y125684D01*
X190933Y125694D01*
X190930D01*
X190925Y125696D01*
X190910Y125707D01*
X190892Y125722D01*
X190884Y125732D01*
X190879Y125742D01*
Y125745D01*
X190876Y125747D01*
X190874Y125758D01*
X190871Y125768D01*
X190869Y125786D01*
X190864Y125806D01*
X190861Y125831D01*
X190856Y125862D01*
Y125867D01*
X190854Y125880D01*
Y125903D01*
X190851Y125936D01*
X190849Y125954D01*
Y125977D01*
X190846Y126002D01*
X190843Y126030D01*
Y126061D01*
X190841Y126094D01*
Y126130D01*
X190838Y126168D01*
Y126171D01*
Y126178D01*
Y126189D01*
X190836Y126204D01*
Y126222D01*
Y126245D01*
X190833Y126268D01*
Y126296D01*
X190831Y126352D01*
Y126413D01*
X190828Y126477D01*
Y126535D01*
Y126538D01*
Y126543D01*
Y126553D01*
Y126566D01*
Y126581D01*
X190831Y126599D01*
Y126640D01*
X190836Y126683D01*
X190841Y126726D01*
X190846Y126765D01*
X190851Y126780D01*
X190856Y126795D01*
X190859Y126801D01*
X190864Y126808D01*
X190871Y126818D01*
X190882Y126829D01*
X190884Y126831D01*
X190892Y126839D01*
X190910Y126849D01*
X190933Y126862D01*
X190935Y126864D01*
X190945Y126869D01*
X190958Y126877D01*
X190973Y126890D01*
X190989Y126902D01*
X191001Y126920D01*
X191012Y126941D01*
X191014Y126964D01*
Y126966D01*
Y126971D01*
X191012Y126979D01*
X191009Y126989D01*
X191001Y127012D01*
X190994Y127025D01*
X190984Y127038D01*
X190981Y127040D01*
X190979Y127043D01*
X190971Y127050D01*
X190961Y127058D01*
X190935Y127073D01*
X190902Y127086D01*
X190900D01*
X190892Y127089D01*
X190882Y127091D01*
X190864Y127096D01*
X190846Y127099D01*
X190820Y127104D01*
X190795Y127106D01*
X190764Y127112D01*
X190759D01*
X190749Y127114D01*
X190734Y127117D01*
X190713Y127119D01*
X190690D01*
X190665Y127122D01*
X190616Y127124D01*
D02*
G37*
%LPD*%
D10*
X253051Y424941D02*
X257563D01*
X253051Y380059D02*
Y424941D01*
Y380059D02*
X257563D01*
X267437D02*
X271949D01*
Y424941D01*
X267437D02*
X271949D01*
X211885Y409630D02*
X213421D01*
Y408095D02*
Y409630D01*
Y381283D02*
Y382819D01*
X211885Y381283D02*
X213421D01*
X185074D02*
X186609D01*
X185074D02*
Y382819D01*
Y408095D02*
Y409630D01*
X186609D01*
X152502Y395072D02*
X153683D01*
X152502Y391528D02*
X153683D01*
X250972Y406709D02*
Y407891D01*
X247428Y406709D02*
Y407891D01*
X247528Y391409D02*
Y392590D01*
X251072Y391409D02*
Y392590D01*
X205128Y441856D02*
Y443037D01*
X208672Y441856D02*
Y443037D01*
X233528Y387610D02*
Y388790D01*
X237072Y387610D02*
Y388790D01*
X226228Y441902D02*
Y443083D01*
X229772Y441902D02*
Y443083D01*
X222772Y441902D02*
Y443083D01*
X219228Y441902D02*
Y443083D01*
X212128Y441856D02*
Y443037D01*
X215672Y441856D02*
Y443037D01*
D11*
X223460Y407071D02*
G03*
X223460Y407071I-591J0D01*
G01*
M02*
