G04*
G04 #@! TF.GenerationSoftware,Altium Limited,Altium Designer,22.4.2 (48)*
G04*
G04 Layer_Color=128*
%FSLAX25Y25*%
%MOIN*%
G70*
G04*
G04 #@! TF.SameCoordinates,9E7922A3-3756-4234-A879-3C4FB0169599*
G04*
G04*
G04 #@! TF.FilePolarity,Positive*
G04*
G01*
G75*
%ADD16R,0.03937X0.04331*%
G04:AMPARAMS|DCode=19|XSize=19.29mil|YSize=23.62mil|CornerRadius=1.93mil|HoleSize=0mil|Usage=FLASHONLY|Rotation=180.000|XOffset=0mil|YOffset=0mil|HoleType=Round|Shape=RoundedRectangle|*
%AMROUNDEDRECTD19*
21,1,0.01929,0.01976,0,0,180.0*
21,1,0.01543,0.02362,0,0,180.0*
1,1,0.00386,-0.00772,0.00988*
1,1,0.00386,0.00772,0.00988*
1,1,0.00386,0.00772,-0.00988*
1,1,0.00386,-0.00772,-0.00988*
%
%ADD19ROUNDEDRECTD19*%
G04:AMPARAMS|DCode=20|XSize=19.29mil|YSize=23.62mil|CornerRadius=1.93mil|HoleSize=0mil|Usage=FLASHONLY|Rotation=270.000|XOffset=0mil|YOffset=0mil|HoleType=Round|Shape=RoundedRectangle|*
%AMROUNDEDRECTD20*
21,1,0.01929,0.01976,0,0,270.0*
21,1,0.01543,0.02362,0,0,270.0*
1,1,0.00386,-0.00988,-0.00772*
1,1,0.00386,-0.00988,0.00772*
1,1,0.00386,0.00988,0.00772*
1,1,0.00386,0.00988,-0.00772*
%
%ADD20ROUNDEDRECTD20*%
%ADD21R,0.07874X0.21654*%
%ADD22R,0.04331X0.03937*%
G04:AMPARAMS|DCode=80|XSize=11.02mil|YSize=61.42mil|CornerRadius=2.76mil|HoleSize=0mil|Usage=FLASHONLY|Rotation=90.000|XOffset=0mil|YOffset=0mil|HoleType=Round|Shape=RoundedRectangle|*
%AMROUNDEDRECTD80*
21,1,0.01102,0.05591,0,0,90.0*
21,1,0.00551,0.06142,0,0,90.0*
1,1,0.00551,0.02795,0.00276*
1,1,0.00551,0.02795,-0.00276*
1,1,0.00551,-0.02795,-0.00276*
1,1,0.00551,-0.02795,0.00276*
%
%ADD80ROUNDEDRECTD80*%
G04:AMPARAMS|DCode=81|XSize=11.02mil|YSize=61.42mil|CornerRadius=2.76mil|HoleSize=0mil|Usage=FLASHONLY|Rotation=180.000|XOffset=0mil|YOffset=0mil|HoleType=Round|Shape=RoundedRectangle|*
%AMROUNDEDRECTD81*
21,1,0.01102,0.05591,0,0,180.0*
21,1,0.00551,0.06142,0,0,180.0*
1,1,0.00551,-0.00276,0.02795*
1,1,0.00551,0.00276,0.02795*
1,1,0.00551,0.00276,-0.02795*
1,1,0.00551,-0.00276,-0.02795*
%
%ADD81ROUNDEDRECTD81*%
D16*
X249200Y403954D02*
D03*
Y410646D02*
D03*
X249300Y395346D02*
D03*
Y388653D02*
D03*
X206900Y445793D02*
D03*
Y439100D02*
D03*
X235300Y391547D02*
D03*
Y384854D02*
D03*
X228000Y445839D02*
D03*
Y439147D02*
D03*
X221000D02*
D03*
Y445839D02*
D03*
X213900Y445793D02*
D03*
Y439100D02*
D03*
D19*
X169609Y388500D02*
D03*
X173191D02*
D03*
X173291Y371600D02*
D03*
X169709D02*
D03*
Y377300D02*
D03*
X173291D02*
D03*
X173091Y382900D02*
D03*
X169509D02*
D03*
X227902Y372160D02*
D03*
X224319D02*
D03*
X229991Y407100D02*
D03*
X226409D02*
D03*
X229983Y401400D02*
D03*
X226400D02*
D03*
X226409Y395600D02*
D03*
X229991D02*
D03*
X230091Y383300D02*
D03*
X226509D02*
D03*
X155000Y481700D02*
D03*
X158583D02*
D03*
X155300Y476000D02*
D03*
X158883D02*
D03*
X183109Y448400D02*
D03*
X186691D02*
D03*
X224310Y377760D02*
D03*
X227893D02*
D03*
D20*
X150448Y398897D02*
D03*
Y402480D02*
D03*
X156048D02*
D03*
Y398897D02*
D03*
X241000Y386109D02*
D03*
Y389691D02*
D03*
X172900Y435317D02*
D03*
Y438900D02*
D03*
X178500D02*
D03*
Y435317D02*
D03*
X184100Y435309D02*
D03*
Y438891D02*
D03*
X195400Y435300D02*
D03*
Y438883D02*
D03*
X189700Y435300D02*
D03*
Y438883D02*
D03*
X201000Y435317D02*
D03*
Y438900D02*
D03*
D21*
X262500Y421201D02*
D03*
Y383799D02*
D03*
D22*
X156439Y393300D02*
D03*
X149747D02*
D03*
D80*
X215704Y406284D02*
D03*
Y404315D02*
D03*
Y402347D02*
D03*
Y400378D02*
D03*
Y398410D02*
D03*
Y396441D02*
D03*
Y394472D02*
D03*
Y392504D02*
D03*
Y390535D02*
D03*
Y388567D02*
D03*
Y386598D02*
D03*
Y384630D02*
D03*
X182791D02*
D03*
Y386598D02*
D03*
Y388567D02*
D03*
Y390535D02*
D03*
Y392504D02*
D03*
Y394472D02*
D03*
Y396441D02*
D03*
Y398410D02*
D03*
Y400378D02*
D03*
Y402347D02*
D03*
Y404315D02*
D03*
Y406284D02*
D03*
D81*
X210074Y379000D02*
D03*
X208105D02*
D03*
X206137D02*
D03*
X204169D02*
D03*
X202200D02*
D03*
X200232D02*
D03*
X198263D02*
D03*
X196294D02*
D03*
X194326D02*
D03*
X192358D02*
D03*
X190389D02*
D03*
X188420D02*
D03*
Y411913D02*
D03*
X190389D02*
D03*
X192358D02*
D03*
X194326D02*
D03*
X196294D02*
D03*
X198263D02*
D03*
X200232D02*
D03*
X202200D02*
D03*
X204169D02*
D03*
X206137D02*
D03*
X208105D02*
D03*
X210074D02*
D03*
M02*
