G04*
G04 #@! TF.GenerationSoftware,Altium Limited,Altium Designer,22.4.2 (48)*
G04*
G04 Layer_Physical_Order=2*
G04 Layer_Color=32768*
%FSLAX25Y25*%
%MOIN*%
G70*
G04*
G04 #@! TF.SameCoordinates,9E7922A3-3756-4234-A879-3C4FB0169599*
G04*
G04*
G04 #@! TF.FilePolarity,Negative*
G04*
G01*
G75*
%ADD67C,0.04000*%
%ADD68C,0.16598*%
%ADD69C,0.08016*%
G04:AMPARAMS|DCode=70|XSize=100.157mil|YSize=100.157mil|CornerRadius=0mil|HoleSize=0mil|Usage=FLASHONLY|Rotation=0.000|XOffset=0mil|YOffset=0mil|HoleType=Round|Shape=Relief|Width=10mil|Gap=10mil|Entries=4|*
%AMTHD70*
7,0,0,0.10016,0.08016,0.01000,45*
%
%ADD70THD70*%
%ADD71C,0.07504*%
G04:AMPARAMS|DCode=72|XSize=103.307mil|YSize=103.307mil|CornerRadius=0mil|HoleSize=0mil|Usage=FLASHONLY|Rotation=0.000|XOffset=0mil|YOffset=0mil|HoleType=Round|Shape=Relief|Width=10mil|Gap=10mil|Entries=4|*
%AMTHD72*
7,0,0,0.10331,0.08331,0.01000,45*
%
%ADD72THD72*%
%ADD73C,0.08331*%
%ADD74C,0.07740*%
%ADD75C,0.05181*%
G04:AMPARAMS|DCode=76|XSize=71.811mil|YSize=71.811mil|CornerRadius=0mil|HoleSize=0mil|Usage=FLASHONLY|Rotation=0.000|XOffset=0mil|YOffset=0mil|HoleType=Round|Shape=Relief|Width=10mil|Gap=10mil|Entries=4|*
%AMTHD76*
7,0,0,0.07181,0.05181,0.01000,45*
%
%ADD76THD76*%
%ADD77C,0.05000*%
G04:AMPARAMS|DCode=78|XSize=70mil|YSize=70mil|CornerRadius=0mil|HoleSize=0mil|Usage=FLASHONLY|Rotation=0.000|XOffset=0mil|YOffset=0mil|HoleType=Round|Shape=Relief|Width=10mil|Gap=10mil|Entries=4|*
%AMTHD78*
7,0,0,0.07000,0.05000,0.01000,45*
%
%ADD78THD78*%
D67*
X119292Y101292D02*
G03*
X120000Y100998I708J708D01*
G01*
X284000D02*
G03*
X284708Y101292I0J1001D01*
G01*
X310708Y127292D02*
G03*
X311001Y128000I-708J708D01*
G01*
Y474000D02*
G03*
X310708Y474708I-1001J-0D01*
G01*
X284708Y500708D02*
G03*
X284000Y501002I-708J-708D01*
G01*
X120000D02*
G03*
X119292Y500708I-0J-1001D01*
G01*
X93292Y474708D02*
G03*
X92998Y474000I708J-708D01*
G01*
Y128000D02*
G03*
X93292Y127292I1001J-0D01*
G01*
X120000Y100998D02*
X284000D01*
X284708Y101292D02*
X310708Y127292D01*
X311001Y128000D02*
Y474000D01*
X284708Y500708D02*
X310708Y474708D01*
X120000Y501002D02*
X284000D01*
X93292Y474708D02*
X119292Y500708D01*
X92998Y128000D02*
Y474000D01*
X93292Y127292D02*
X119292Y101292D01*
D68*
X280000Y470000D02*
D03*
X124000D02*
D03*
X252000Y138000D02*
D03*
X158000D02*
D03*
D69*
X291500Y451500D02*
D03*
Y431500D02*
D03*
Y421500D02*
D03*
Y411500D02*
D03*
Y401500D02*
D03*
Y391500D02*
D03*
Y381500D02*
D03*
Y371500D02*
D03*
Y361500D02*
D03*
Y351500D02*
D03*
Y341500D02*
D03*
Y331500D02*
D03*
Y321500D02*
D03*
Y311500D02*
D03*
Y301500D02*
D03*
Y291500D02*
D03*
Y281500D02*
D03*
Y271500D02*
D03*
Y261500D02*
D03*
Y251500D02*
D03*
Y241500D02*
D03*
Y231500D02*
D03*
Y221500D02*
D03*
Y211500D02*
D03*
Y201500D02*
D03*
Y191500D02*
D03*
Y181500D02*
D03*
Y171500D02*
D03*
Y161500D02*
D03*
Y151500D02*
D03*
Y141500D02*
D03*
X112800Y141400D02*
D03*
Y151400D02*
D03*
Y161400D02*
D03*
Y171400D02*
D03*
Y181400D02*
D03*
Y191400D02*
D03*
Y201400D02*
D03*
Y211400D02*
D03*
Y221400D02*
D03*
Y231400D02*
D03*
Y241400D02*
D03*
Y251400D02*
D03*
Y261400D02*
D03*
Y271400D02*
D03*
Y281400D02*
D03*
Y291400D02*
D03*
Y301400D02*
D03*
Y311400D02*
D03*
Y321400D02*
D03*
Y331400D02*
D03*
Y341400D02*
D03*
Y351400D02*
D03*
Y361400D02*
D03*
Y381400D02*
D03*
Y391400D02*
D03*
Y401400D02*
D03*
Y411400D02*
D03*
Y421400D02*
D03*
Y431400D02*
D03*
Y451400D02*
D03*
X152229Y383000D02*
D03*
Y353000D02*
D03*
Y363000D02*
D03*
Y373000D02*
D03*
D70*
X291500Y441500D02*
D03*
Y131500D02*
D03*
X112800Y131400D02*
D03*
Y371400D02*
D03*
Y441400D02*
D03*
D71*
X242800Y345125D02*
D03*
X234926D02*
D03*
X208863Y360000D02*
D03*
X216737D02*
D03*
D72*
X151400Y437000D02*
D03*
D73*
Y427000D02*
D03*
Y417000D02*
D03*
Y447000D02*
D03*
Y457000D02*
D03*
Y467000D02*
D03*
D74*
X192358Y479083D02*
D03*
X209681D02*
D03*
D75*
X127200Y156100D02*
D03*
X122500Y165400D02*
D03*
X122600Y180400D02*
D03*
X136200Y185900D02*
D03*
X124700Y193100D02*
D03*
X138200Y198200D02*
D03*
X148100Y203100D02*
D03*
X127100Y207600D02*
D03*
X180800Y417700D02*
D03*
X176800Y414400D02*
D03*
X171500Y417800D02*
D03*
X171968Y412932D02*
D03*
X181800Y370300D02*
D03*
X235700Y401900D02*
D03*
X243749Y404897D02*
D03*
X241500Y398900D02*
D03*
X225643Y388164D02*
D03*
X205100Y385400D02*
D03*
X200500Y388700D02*
D03*
X199200Y397800D02*
D03*
X202685Y405055D02*
D03*
X249000Y443600D02*
D03*
X223500Y413500D02*
D03*
X216500Y422500D02*
D03*
X195400Y431600D02*
D03*
X161600Y436700D02*
D03*
X178300Y443500D02*
D03*
X228200Y295207D02*
D03*
X276500Y396500D02*
D03*
X277900Y380700D02*
D03*
X270400Y451100D02*
D03*
X200903Y451121D02*
D03*
X226300Y323000D02*
D03*
X258100Y352400D02*
D03*
X263100Y364900D02*
D03*
X269800Y373700D02*
D03*
X271807Y356800D02*
D03*
Y363400D02*
D03*
X228600Y301300D02*
D03*
X224500Y351000D02*
D03*
X205400Y314300D02*
D03*
X198800Y309300D02*
D03*
X218200Y309800D02*
D03*
X212600Y309300D02*
D03*
X222000Y305900D02*
D03*
X229775Y313363D02*
D03*
X215100Y301600D02*
D03*
X188500Y310100D02*
D03*
X223200Y300700D02*
D03*
X195000Y330900D02*
D03*
X188203Y326997D02*
D03*
X181400Y325100D02*
D03*
X185900Y342500D02*
D03*
X189400Y315600D02*
D03*
X209300Y304100D02*
D03*
X177900Y351400D02*
D03*
X179100Y363100D02*
D03*
X172200Y352500D02*
D03*
X163100Y355300D02*
D03*
X161100Y373800D02*
D03*
X163000Y381400D02*
D03*
X165700Y375700D02*
D03*
X249000Y289600D02*
D03*
X243800Y287500D02*
D03*
X253300Y285100D02*
D03*
X196300Y334900D02*
D03*
X160600Y344807D02*
D03*
X178700Y318600D02*
D03*
X196000Y340800D02*
D03*
X168000Y330200D02*
D03*
X152700Y336400D02*
D03*
X133000Y336784D02*
D03*
X185000Y296500D02*
D03*
X127400Y444800D02*
D03*
X127700Y385300D02*
D03*
X136700Y366100D02*
D03*
X126700Y359600D02*
D03*
X142400Y358600D02*
D03*
X253873Y276927D02*
D03*
X248800Y265700D02*
D03*
X247167Y271021D02*
D03*
X144700Y372000D02*
D03*
X142100Y384400D02*
D03*
X151200Y297200D02*
D03*
X182400Y305000D02*
D03*
X178800Y268400D02*
D03*
X154900Y234700D02*
D03*
X167800Y251000D02*
D03*
X168500Y256300D02*
D03*
X165600Y267100D02*
D03*
X171400Y270000D02*
D03*
X170600Y274600D02*
D03*
X176400Y276400D02*
D03*
X162300Y242300D02*
D03*
X160800Y236800D02*
D03*
X160900Y286200D02*
D03*
X166500Y261300D02*
D03*
X180100Y256000D02*
D03*
X131400Y173800D02*
D03*
X141300Y212400D02*
D03*
X149700Y231900D02*
D03*
X141700Y225000D02*
D03*
X135100Y220800D02*
D03*
X149200Y217000D02*
D03*
X122800Y146800D02*
D03*
X206400Y309000D02*
D03*
X191200Y304000D02*
D03*
X179200Y200600D02*
D03*
X241300Y178200D02*
D03*
X235300Y236700D02*
D03*
X223575Y345125D02*
D03*
X232100Y374700D02*
D03*
X209400Y369900D02*
D03*
X219600Y374800D02*
D03*
X146800Y399400D02*
D03*
X194700Y400200D02*
D03*
X162578Y410122D02*
D03*
X164700Y390200D02*
D03*
X158993Y381300D02*
D03*
X162100Y394500D02*
D03*
X163400Y423600D02*
D03*
X158993Y387800D02*
D03*
X167500Y395600D02*
D03*
X180000Y428100D02*
D03*
X188500Y391600D02*
D03*
X183900Y412800D02*
D03*
X185719Y417981D02*
D03*
X206332Y457006D02*
D03*
X193333Y455321D02*
D03*
D76*
X256900Y449900D02*
D03*
X190394Y368205D02*
D03*
X229987Y404250D02*
D03*
X249435Y399439D02*
D03*
X233981Y379554D02*
D03*
X239500Y449600D02*
D03*
X247700Y419500D02*
D03*
X239700Y419600D02*
D03*
X232100D02*
D03*
X206500Y425000D02*
D03*
X272500Y438500D02*
D03*
X184586Y455053D02*
D03*
X252200Y365900D02*
D03*
X237800Y366100D02*
D03*
X244900D02*
D03*
X230500Y365900D02*
D03*
X200100Y320700D02*
D03*
X171300Y366900D02*
D03*
X210900Y339507D02*
D03*
X203200Y339707D02*
D03*
X169800Y345400D02*
D03*
X127700Y432800D02*
D03*
X235418Y333050D02*
D03*
X163000Y304300D02*
D03*
X193900Y295500D02*
D03*
X157200Y268200D02*
D03*
X174100Y251000D02*
D03*
X184000Y196500D02*
D03*
X263606Y209525D02*
D03*
X263800Y201200D02*
D03*
X228300Y235900D02*
D03*
X143300Y392100D02*
D03*
X256700Y457400D02*
D03*
X200700Y444600D02*
D03*
X175800Y408100D02*
D03*
X228000Y434547D02*
D03*
X220900Y434446D02*
D03*
X213850Y434450D02*
D03*
X206800Y434400D02*
D03*
D77*
X145400Y483200D02*
D03*
X167300Y468000D02*
D03*
X145146Y477446D02*
D03*
D78*
X169300Y478200D02*
D03*
M02*
