G04*
G04 #@! TF.GenerationSoftware,Altium Limited,Altium Designer,22.4.2 (48)*
G04*
G04 Layer_Color=16711935*
%FSLAX25Y25*%
%MOIN*%
G70*
G04*
G04 #@! TF.SameCoordinates,2D1903EE-2603-4782-A524-194C17E073E1*
G04*
G04*
G04 #@! TF.FilePolarity,Negative*
G04*
G01*
G75*
%ADD33R,0.04737X0.05131*%
G04:AMPARAMS|DCode=36|XSize=27.29mil|YSize=31.62mil|CornerRadius=5.93mil|HoleSize=0mil|Usage=FLASHONLY|Rotation=180.000|XOffset=0mil|YOffset=0mil|HoleType=Round|Shape=RoundedRectangle|*
%AMROUNDEDRECTD36*
21,1,0.02729,0.01976,0,0,180.0*
21,1,0.01543,0.03162,0,0,180.0*
1,1,0.01186,-0.00772,0.00988*
1,1,0.01186,0.00772,0.00988*
1,1,0.01186,0.00772,-0.00988*
1,1,0.01186,-0.00772,-0.00988*
%
%ADD36ROUNDEDRECTD36*%
G04:AMPARAMS|DCode=37|XSize=27.29mil|YSize=31.62mil|CornerRadius=5.93mil|HoleSize=0mil|Usage=FLASHONLY|Rotation=270.000|XOffset=0mil|YOffset=0mil|HoleType=Round|Shape=RoundedRectangle|*
%AMROUNDEDRECTD37*
21,1,0.02729,0.01976,0,0,270.0*
21,1,0.01543,0.03162,0,0,270.0*
1,1,0.01186,-0.00988,-0.00772*
1,1,0.01186,-0.00988,0.00772*
1,1,0.01186,0.00988,0.00772*
1,1,0.01186,0.00988,-0.00772*
%
%ADD37ROUNDEDRECTD37*%
%ADD38R,0.05131X0.04737*%
%ADD45C,0.04737*%
%ADD46R,0.06194X0.06194*%
%ADD47C,0.06194*%
%ADD48C,0.05682*%
%ADD49R,0.05682X0.05682*%
%ADD50C,0.07296*%
%ADD51C,0.04540*%
%ADD52C,0.03556*%
G04:AMPARAMS|DCode=82|XSize=19.02mil|YSize=69.42mil|CornerRadius=6.76mil|HoleSize=0mil|Usage=FLASHONLY|Rotation=90.000|XOffset=0mil|YOffset=0mil|HoleType=Round|Shape=RoundedRectangle|*
%AMROUNDEDRECTD82*
21,1,0.01902,0.05591,0,0,90.0*
21,1,0.00551,0.06942,0,0,90.0*
1,1,0.01351,0.02795,0.00276*
1,1,0.01351,0.02795,-0.00276*
1,1,0.01351,-0.02795,-0.00276*
1,1,0.01351,-0.02795,0.00276*
%
%ADD82ROUNDEDRECTD82*%
G04:AMPARAMS|DCode=83|XSize=19.02mil|YSize=69.42mil|CornerRadius=6.76mil|HoleSize=0mil|Usage=FLASHONLY|Rotation=180.000|XOffset=0mil|YOffset=0mil|HoleType=Round|Shape=RoundedRectangle|*
%AMROUNDEDRECTD83*
21,1,0.01902,0.05591,0,0,180.0*
21,1,0.00551,0.06942,0,0,180.0*
1,1,0.01351,-0.00276,0.02795*
1,1,0.01351,0.00276,0.02795*
1,1,0.01351,0.00276,-0.02795*
1,1,0.01351,-0.00276,-0.02795*
%
%ADD83ROUNDEDRECTD83*%
%ADD84C,0.01900*%
D33*
X249200Y403954D02*
D03*
Y410646D02*
D03*
X249300Y395346D02*
D03*
Y388653D02*
D03*
X206900Y445793D02*
D03*
Y439100D02*
D03*
X235300Y391547D02*
D03*
Y384854D02*
D03*
X228000Y445839D02*
D03*
Y439147D02*
D03*
X221000D02*
D03*
Y445839D02*
D03*
X213900Y445793D02*
D03*
Y439100D02*
D03*
D36*
X169609Y388500D02*
D03*
X173191D02*
D03*
X173291Y371600D02*
D03*
X169709D02*
D03*
Y377300D02*
D03*
X173291D02*
D03*
X173091Y382900D02*
D03*
X169509D02*
D03*
X227902Y372160D02*
D03*
X224319D02*
D03*
X229991Y407100D02*
D03*
X226409D02*
D03*
X229983Y401400D02*
D03*
X226400D02*
D03*
X226409Y395600D02*
D03*
X229991D02*
D03*
X230091Y383300D02*
D03*
X226509D02*
D03*
X155000Y481700D02*
D03*
X158583D02*
D03*
X155300Y476000D02*
D03*
X158883D02*
D03*
X183109Y448400D02*
D03*
X186691D02*
D03*
X224310Y377760D02*
D03*
X227893D02*
D03*
D37*
X150448Y398897D02*
D03*
Y402480D02*
D03*
X156048D02*
D03*
Y398897D02*
D03*
X241000Y386109D02*
D03*
Y389691D02*
D03*
X172900Y435317D02*
D03*
Y438900D02*
D03*
X178500D02*
D03*
Y435317D02*
D03*
X184100Y435309D02*
D03*
Y438891D02*
D03*
X195400Y435300D02*
D03*
Y438883D02*
D03*
X189700Y435300D02*
D03*
Y438883D02*
D03*
X201000Y435317D02*
D03*
Y438900D02*
D03*
D38*
X156439Y393300D02*
D03*
X149747D02*
D03*
D45*
X280000Y470000D02*
D03*
X124000D02*
D03*
X252000Y138000D02*
D03*
X158000D02*
D03*
D46*
X291500Y451500D02*
D03*
X112800Y451400D02*
D03*
X152229Y353000D02*
D03*
D47*
X291500Y441500D02*
D03*
Y431500D02*
D03*
Y421500D02*
D03*
Y411500D02*
D03*
Y401500D02*
D03*
Y391500D02*
D03*
Y381500D02*
D03*
Y371500D02*
D03*
Y361500D02*
D03*
Y351500D02*
D03*
Y341500D02*
D03*
Y331500D02*
D03*
Y321500D02*
D03*
Y311500D02*
D03*
Y301500D02*
D03*
Y291500D02*
D03*
Y281500D02*
D03*
Y271500D02*
D03*
Y261500D02*
D03*
Y251500D02*
D03*
Y241500D02*
D03*
Y231500D02*
D03*
Y221500D02*
D03*
Y211500D02*
D03*
Y201500D02*
D03*
Y191500D02*
D03*
Y181500D02*
D03*
Y171500D02*
D03*
Y161500D02*
D03*
Y151500D02*
D03*
Y141500D02*
D03*
Y131500D02*
D03*
X112800Y131400D02*
D03*
Y141400D02*
D03*
Y151400D02*
D03*
Y161400D02*
D03*
Y171400D02*
D03*
Y181400D02*
D03*
Y191400D02*
D03*
Y201400D02*
D03*
Y211400D02*
D03*
Y221400D02*
D03*
Y231400D02*
D03*
Y241400D02*
D03*
Y251400D02*
D03*
Y261400D02*
D03*
Y271400D02*
D03*
Y281400D02*
D03*
Y291400D02*
D03*
Y301400D02*
D03*
Y311400D02*
D03*
Y321400D02*
D03*
Y331400D02*
D03*
Y341400D02*
D03*
Y351400D02*
D03*
Y361400D02*
D03*
Y371400D02*
D03*
Y381400D02*
D03*
Y391400D02*
D03*
Y401400D02*
D03*
Y411400D02*
D03*
Y421400D02*
D03*
Y431400D02*
D03*
Y441400D02*
D03*
X152229Y383000D02*
D03*
Y363000D02*
D03*
Y373000D02*
D03*
D48*
X242800Y345125D02*
D03*
X216737Y360000D02*
D03*
D49*
X234926Y345125D02*
D03*
X208863Y360000D02*
D03*
D50*
X151400Y437000D02*
D03*
Y427000D02*
D03*
Y417000D02*
D03*
Y447000D02*
D03*
Y457000D02*
D03*
Y467000D02*
D03*
D51*
X192358Y479083D02*
D03*
X209681D02*
D03*
D52*
X250000Y382000D02*
D03*
X249855Y414765D02*
D03*
X127200Y156100D02*
D03*
X122500Y165400D02*
D03*
X122600Y180400D02*
D03*
X136200Y185900D02*
D03*
X124700Y193100D02*
D03*
X138200Y198200D02*
D03*
X148100Y203100D02*
D03*
X127100Y207600D02*
D03*
X256900Y449900D02*
D03*
X180800Y417700D02*
D03*
X176800Y414400D02*
D03*
X171500Y417800D02*
D03*
X171968Y412932D02*
D03*
X190394Y368205D02*
D03*
X181800Y370300D02*
D03*
X229987Y404250D02*
D03*
X235700Y401900D02*
D03*
X243749Y404897D02*
D03*
X249435Y399439D02*
D03*
X241500Y398900D02*
D03*
X233981Y379554D02*
D03*
X225643Y388164D02*
D03*
X205100Y385400D02*
D03*
X200500Y388700D02*
D03*
X199200Y397800D02*
D03*
X202685Y405055D02*
D03*
X239500Y449600D02*
D03*
X249000Y443600D02*
D03*
X247700Y419500D02*
D03*
X239700Y419600D02*
D03*
X232100D02*
D03*
X223500Y413500D02*
D03*
X206500Y425000D02*
D03*
X216500Y422500D02*
D03*
X195400Y431600D02*
D03*
X161600Y436700D02*
D03*
X178300Y443500D02*
D03*
X228200Y295207D02*
D03*
X272500Y438500D02*
D03*
X276500Y396500D02*
D03*
X277900Y380700D02*
D03*
X270400Y451100D02*
D03*
X200903Y451121D02*
D03*
X228000Y450439D02*
D03*
X213900Y450393D02*
D03*
X221000Y450439D02*
D03*
X206900Y450393D02*
D03*
X184586Y455053D02*
D03*
X226300Y323000D02*
D03*
X258100Y352400D02*
D03*
X263100Y364900D02*
D03*
X269800Y373700D02*
D03*
X271807Y356800D02*
D03*
Y363400D02*
D03*
X228600Y301300D02*
D03*
X224500Y351000D02*
D03*
X252200Y365900D02*
D03*
X237800Y366100D02*
D03*
X244900D02*
D03*
X230500Y365900D02*
D03*
X205400Y314300D02*
D03*
X198800Y309300D02*
D03*
X200100Y320700D02*
D03*
X218200Y309800D02*
D03*
X212600Y309300D02*
D03*
X222000Y305900D02*
D03*
X229775Y313363D02*
D03*
X215100Y301600D02*
D03*
X188500Y310100D02*
D03*
X223200Y300700D02*
D03*
X195000Y330900D02*
D03*
X188203Y326997D02*
D03*
X181400Y325100D02*
D03*
X185900Y342500D02*
D03*
X189400Y315600D02*
D03*
X209300Y304100D02*
D03*
X177900Y351400D02*
D03*
X179100Y363100D02*
D03*
X172200Y352500D02*
D03*
X163100Y355300D02*
D03*
X171300Y366900D02*
D03*
X161100Y373800D02*
D03*
X163000Y381400D02*
D03*
X165700Y375700D02*
D03*
X210900Y339507D02*
D03*
X249000Y289600D02*
D03*
X243800Y287500D02*
D03*
X253300Y285100D02*
D03*
X203200Y339707D02*
D03*
X196300Y334900D02*
D03*
X169800Y345400D02*
D03*
X160600Y344807D02*
D03*
X178700Y318600D02*
D03*
X196000Y340800D02*
D03*
X168000Y330200D02*
D03*
X152700Y336400D02*
D03*
X133000Y336784D02*
D03*
X185000Y296500D02*
D03*
X127400Y444800D02*
D03*
X127700Y432800D02*
D03*
Y385300D02*
D03*
X136700Y366100D02*
D03*
X126700Y359600D02*
D03*
X142400Y358600D02*
D03*
X253873Y276927D02*
D03*
X248800Y265700D02*
D03*
X247167Y271021D02*
D03*
X235418Y333050D02*
D03*
X144700Y372000D02*
D03*
X142100Y384400D02*
D03*
X163000Y304300D02*
D03*
X151200Y297200D02*
D03*
X193900Y295500D02*
D03*
X182400Y305000D02*
D03*
X178800Y268400D02*
D03*
X154900Y234700D02*
D03*
X167800Y251000D02*
D03*
X168500Y256300D02*
D03*
X165600Y267100D02*
D03*
X157200Y268200D02*
D03*
X171400Y270000D02*
D03*
X170600Y274600D02*
D03*
X176400Y276400D02*
D03*
X174100Y251000D02*
D03*
X162300Y242300D02*
D03*
X160800Y236800D02*
D03*
X160900Y286200D02*
D03*
X166500Y261300D02*
D03*
X180100Y256000D02*
D03*
X131400Y173800D02*
D03*
X141300Y212400D02*
D03*
X149700Y231900D02*
D03*
X141700Y225000D02*
D03*
X135100Y220800D02*
D03*
X149200Y217000D02*
D03*
X122800Y146800D02*
D03*
X206400Y309000D02*
D03*
X191200Y304000D02*
D03*
X179200Y200600D02*
D03*
X241300Y178200D02*
D03*
X184000Y196500D02*
D03*
X263606Y209525D02*
D03*
X263800Y201200D02*
D03*
X235300Y236700D02*
D03*
X228300Y235900D02*
D03*
X223575Y345125D02*
D03*
X232100Y374700D02*
D03*
X209400Y369900D02*
D03*
X219600Y374800D02*
D03*
X146800Y399400D02*
D03*
X194700Y400200D02*
D03*
X143300Y392100D02*
D03*
X162578Y410122D02*
D03*
X164700Y390200D02*
D03*
X158993Y381300D02*
D03*
X162100Y394500D02*
D03*
X163400Y423600D02*
D03*
X158993Y387800D02*
D03*
X167500Y395600D02*
D03*
X180000Y428100D02*
D03*
X188500Y391600D02*
D03*
X183900Y412800D02*
D03*
X256700Y457400D02*
D03*
X200700Y444600D02*
D03*
X185719Y417981D02*
D03*
X206332Y457006D02*
D03*
X193333Y455321D02*
D03*
X175800Y408100D02*
D03*
X228000Y434547D02*
D03*
X220900Y434446D02*
D03*
X213850Y434450D02*
D03*
X206800Y434400D02*
D03*
D82*
X215704Y406284D02*
D03*
Y404315D02*
D03*
Y402347D02*
D03*
Y400378D02*
D03*
Y398410D02*
D03*
Y396441D02*
D03*
Y394472D02*
D03*
Y392504D02*
D03*
Y390535D02*
D03*
Y388567D02*
D03*
Y386598D02*
D03*
Y384630D02*
D03*
X182791D02*
D03*
Y386598D02*
D03*
Y388567D02*
D03*
Y390535D02*
D03*
Y392504D02*
D03*
Y394472D02*
D03*
Y396441D02*
D03*
Y398410D02*
D03*
Y400378D02*
D03*
Y402347D02*
D03*
Y404315D02*
D03*
Y406284D02*
D03*
D83*
X210074Y379000D02*
D03*
X208105D02*
D03*
X206137D02*
D03*
X204169D02*
D03*
X202200D02*
D03*
X200232D02*
D03*
X198263D02*
D03*
X196294D02*
D03*
X194326D02*
D03*
X192358D02*
D03*
X190389D02*
D03*
X188420D02*
D03*
Y411913D02*
D03*
X190389D02*
D03*
X192358D02*
D03*
X194326D02*
D03*
X196294D02*
D03*
X198263D02*
D03*
X200232D02*
D03*
X202200D02*
D03*
X204169D02*
D03*
X206137D02*
D03*
X208105D02*
D03*
X210074D02*
D03*
D84*
X145400Y483200D02*
D03*
X167300Y468000D02*
D03*
X169300Y478200D02*
D03*
X145146Y477446D02*
D03*
M02*
