G04*
G04 #@! TF.GenerationSoftware,Altium Limited,Altium Designer,22.4.2 (48)*
G04*
G04 Layer_Color=65535*
%FSLAX25Y25*%
%MOIN*%
G70*
G04*
G04 #@! TF.SameCoordinates,86050991-3F27-4FED-9AA6-CAC4C36B4C69*
G04*
G04*
G04 #@! TF.FilePolarity,Positive*
G04*
G01*
G75*
%ADD10C,0.00500*%
%ADD11C,0.00787*%
%ADD12C,0.01000*%
D10*
X288902Y470000D02*
G03*
X288902Y470000I-8902J0D01*
G01*
X132902D02*
G03*
X132902Y470000I-8902J0D01*
G01*
X258902Y158000D02*
G03*
X258902Y158000I-8902J0D01*
G01*
X166902D02*
G03*
X166902Y158000I-8902J0D01*
G01*
X263506Y317600D02*
G03*
X263506Y317600I-5906J0D01*
G01*
X220205Y181400D02*
G03*
X220205Y181400I-5906J0D01*
G01*
X155337Y413654D02*
G03*
X155337Y413654I-394J0D01*
G01*
X193715Y282675D02*
Y285785D01*
Y246415D02*
Y249525D01*
X233085Y282675D02*
Y285785D01*
Y246415D02*
Y249525D01*
X193715Y285785D02*
X196825D01*
X193715Y246415D02*
X196825D01*
X229975Y285785D02*
X233085D01*
X229975Y246415D02*
X233085D01*
X270067Y203072D02*
X270933D01*
X270067Y199528D02*
X270933D01*
X158872Y257656D02*
Y258837D01*
X155328Y257656D02*
Y258837D01*
X243033Y313835D02*
Y321365D01*
X272167Y313835D02*
Y321365D01*
X243033Y303033D02*
X272167D01*
X243033D02*
Y305789D01*
Y329411D02*
Y332167D01*
X272167D01*
Y303033D02*
Y305789D01*
Y329411D02*
Y332167D01*
X199733Y177635D02*
Y185165D01*
X228867Y177635D02*
Y185165D01*
X199733Y166833D02*
X228867D01*
X199733D02*
Y169589D01*
Y193211D02*
Y195967D01*
X228867D01*
Y166833D02*
Y169589D01*
Y193211D02*
Y195967D01*
X135220Y312792D02*
Y326808D01*
X150180Y312792D02*
Y326808D01*
X135220Y304052D02*
Y305154D01*
X150180Y304052D02*
Y305154D01*
X135220Y334446D02*
Y335548D01*
X150180Y334446D02*
Y335548D01*
X135220Y304052D02*
X150180D01*
X135220Y335548D02*
X150180D01*
X270219Y207828D02*
X271085D01*
X270219Y211372D02*
X271085D01*
X133751Y244559D02*
X138263D01*
X133751D02*
Y289441D01*
X138263D01*
X148137D02*
X152649D01*
Y244559D02*
Y289441D01*
X148137Y244559D02*
X152649D01*
X192156Y318928D02*
X193337D01*
X192156Y322472D02*
X193337D01*
X179009Y184972D02*
X180191D01*
X179009Y181428D02*
X180191D01*
X228728Y358063D02*
Y359244D01*
X232272Y358063D02*
Y359244D01*
X243128Y358063D02*
Y359244D01*
X246672Y358063D02*
Y359244D01*
X235928Y358063D02*
Y359244D01*
X239472Y358063D02*
Y359244D01*
X253872Y358056D02*
Y359237D01*
X250328Y358056D02*
Y359237D01*
X201428Y330963D02*
Y332144D01*
X204972Y330963D02*
Y332144D01*
X212672Y330963D02*
Y332144D01*
X209128Y330963D02*
Y332144D01*
X156328Y311709D02*
Y312891D01*
X159872Y311709D02*
Y312891D01*
X155328Y275810D02*
Y276991D01*
X158872Y275810D02*
Y276991D01*
X155594Y404441D02*
Y404776D01*
Y409224D02*
Y409559D01*
X148606Y404441D02*
Y404776D01*
Y409224D02*
Y409559D01*
X155594D01*
X148606Y404441D02*
X155594D01*
X175367Y456928D02*
X176233D01*
X175367Y460472D02*
X176233D01*
X233494Y454241D02*
Y454576D01*
Y459024D02*
Y459359D01*
X226506Y454241D02*
Y454576D01*
Y459024D02*
Y459359D01*
X233494D01*
X226506Y454241D02*
X233494D01*
X237928Y425910D02*
Y427091D01*
X241472Y425910D02*
Y427091D01*
X230428Y425910D02*
Y427091D01*
X233972Y425910D02*
Y427091D01*
X248110Y448228D02*
X249290D01*
X248110Y451772D02*
X249290D01*
X248263Y455728D02*
X249444D01*
X248263Y459272D02*
X249444D01*
X233101Y436850D02*
Y443150D01*
X245699Y436850D02*
Y443150D01*
X256959Y431206D02*
Y438194D01*
X251841Y431206D02*
Y438194D01*
Y431206D02*
X252176D01*
X256624D02*
X256959D01*
X251841Y438194D02*
X252176D01*
X256624D02*
X256959D01*
X249472Y425910D02*
Y427091D01*
X245928Y425910D02*
Y427091D01*
X146400Y412000D02*
X156400D01*
Y472000D01*
X146400D02*
X156400D01*
X146400Y412000D02*
Y472000D01*
X150589Y486851D02*
X163187D01*
X150589Y475040D02*
X163187D01*
X185862Y496681D02*
Y502114D01*
X216177D01*
Y496681D02*
Y502114D01*
X188382Y465894D02*
X192752D01*
X209287D02*
X213657D01*
X185862Y475224D02*
Y484319D01*
X216177Y475224D02*
Y484319D01*
D11*
X291894Y459059D02*
G03*
X291894Y459059I-394J0D01*
G01*
X113194Y458959D02*
G03*
X113194Y458959I-394J0D01*
G01*
X235320Y352999D02*
G03*
X235320Y352999I-394J0D01*
G01*
X152622Y345441D02*
G03*
X152622Y345441I-394J0D01*
G01*
X184896Y280864D02*
G03*
X184896Y280864I-394J0D01*
G01*
X277842Y201300D02*
G03*
X277842Y201300I-394J0D01*
G01*
X236340Y303820D02*
G03*
X236340Y303820I-394J0D01*
G01*
X193040Y167621D02*
G03*
X193040Y167621I-394J0D01*
G01*
X130102Y330627D02*
G03*
X130102Y330627I-394J0D01*
G01*
X277994Y209600D02*
G03*
X277994Y209600I-394J0D01*
G01*
X162198Y407000D02*
G03*
X162198Y407000I-394J0D01*
G01*
X209257Y367874D02*
G03*
X209257Y367874I-394J0D01*
G01*
X169245Y458700D02*
G03*
X169245Y458700I-394J0D01*
G01*
X240098Y456800D02*
G03*
X240098Y456800I-394J0D01*
G01*
X244124Y449843D02*
G03*
X244124Y449843I-394J0D01*
G01*
X254794Y444405D02*
G03*
X254794Y444405I-394J0D01*
G01*
X167518Y476615D02*
G03*
X167518Y476615I-394J0D01*
G01*
X207713Y461366D02*
G03*
X207713Y461366I-394J0D01*
G01*
X286500Y126500D02*
X296500D01*
X286500Y456500D02*
X296500D01*
X286500Y126500D02*
Y456500D01*
X296500Y126500D02*
Y456500D01*
X117800Y126400D02*
Y456400D01*
X107800Y126400D02*
Y456400D01*
X117800D01*
X107800Y126400D02*
X117800D01*
X230202Y340401D02*
X247524D01*
X230202D02*
Y342743D01*
X247524Y340401D02*
Y342743D01*
X230202Y349850D02*
X247524D01*
X230202Y347507D02*
Y349850D01*
X247524Y347507D02*
Y349850D01*
X147229Y348000D02*
X157229D01*
X147229Y388000D02*
X157229D01*
X147229Y348000D02*
Y388000D01*
X157229Y348000D02*
Y388000D01*
X221461Y362382D02*
Y364724D01*
X204139Y362382D02*
Y364724D01*
X221461D01*
Y355276D02*
Y357618D01*
X204139Y355276D02*
Y357618D01*
Y355276D02*
X221461D01*
D12*
X272802Y454501D02*
Y460499D01*
X275801D01*
X276800Y459499D01*
Y457500D01*
X275801Y456500D01*
X272802D01*
X282798Y454501D02*
X278800D01*
X282798Y458500D01*
Y459499D01*
X281799Y460499D01*
X279799D01*
X278800Y459499D01*
X124001Y453001D02*
Y458999D01*
X127000D01*
X128000Y457999D01*
Y456000D01*
X127000Y455000D01*
X124001D01*
X129999Y453001D02*
X131999D01*
X130999D01*
Y458999D01*
X129999Y457999D01*
M02*
